<?xml version="1.0" encoding="UTF-8" standalone="no"?>
<!DOCTYPE svg PUBLIC "-//W3C//DTD SVG 1.1//EN" "http://www.w3.org/Graphics/SVG/1.1/DTD/svg11.dtd">
<svg width="100%" height="100%" viewBox="0 0 446 17" version="1.1" xmlns="http://www.w3.org/2000/svg" xmlns:xlink="http://www.w3.org/1999/xlink" xml:space="preserve" xmlns:serif="http://www.serif.com/" style="fill-rule:evenodd;clip-rule:evenodd;stroke-linejoin:round;stroke-miterlimit:2;">
    <g transform="matrix(1,0,0,1,-35.0713,-881.093)">
        <path d="M475.5,884.9C464,884.6 452.6,884.6 441.1,884.1C416.8,883.2 392.5,880.3 368.3,881.3C317.1,883.4 265.9,888.1 214.6,889.5C174.5,890.6 134.5,888.3 90.8,885.9C76.2,884.7 58,886.8 39.7,886.5C37.8,886.5 35.4,885.9 35.1,889.7C34.8,893.8 36.9,895.6 39.3,896C40.6,896.2 42,895.6 43.4,895.5C59.5,894.4 75.5,893.7 91.6,893.8C106.3,893.9 120.9,896.7 135.6,897.1C165.5,897.9 195.5,896.8 225.4,896.1C240.9,895.7 256.5,897.4 272,896.2C301.6,894 331.2,891.9 361,891.6C396.2,891.3 431.2,893.1 466.3,894.5C469.3,894.6 472.3,894.7 475.3,894.5C477.7,894.3 480.9,893.9 480.7,889C480.7,884.6 477.7,885 475.5,884.9Z" style="fill:rgb(68,66,66);fill-rule:nonzero;"/>
    </g>
</svg>
